<svg width="131" height="121" viewBox="0 0 131 121" fill="none" xmlns="http://www.w3.org/2000/svg">
<g clip-path="url(#clip0_193_502)">
<path d="M122.348 58.0347H113.454C108.678 58.0347 104.802 54.1775 104.802 49.4238C104.802 54.1775 100.937 58.0347 96.1498 58.0347H87.2565C82.4799 58.0347 78.6042 54.1775 78.6042 49.4238C78.6042 54.1775 74.7389 58.0347 69.9519 58.0347H61.0586C56.282 58.0347 52.4063 54.1775 52.4063 49.4238C52.4063 54.1775 48.541 58.0347 43.754 58.0347H34.8607C30.0841 58.0347 26.2084 54.1775 26.2084 49.4238C26.2084 54.1775 22.3327 58.0347 17.5561 58.0347H8.66282C3.88624 58.0347 0.010498 54.1775 0.010498 49.4238V112.9C0.010498 117.372 3.65579 120.99 8.13908 120.99H122.871C127.365 120.99 131 117.362 131 112.9V49.4238C131 54.1775 127.124 58.0347 122.348 58.0347Z" fill="url(#paint0_linear_193_502)"/>
<path d="M26.1979 34.1309V49.424C26.1979 54.1776 22.3222 58.0348 17.5456 58.0348H8.65233C3.87574 58.0348 0 54.1776 0 49.424V34.1309H26.1979Z" fill="#0023A3"/>
<path d="M52.3958 34.1309V49.424C52.3958 54.1776 48.5305 58.0348 43.7435 58.0348H34.8502C30.0736 58.0348 26.1979 54.1776 26.1979 49.424V34.1309H52.3958Z" fill="#007EB3"/>
<path d="M78.5937 34.1309V49.424C78.5937 54.1776 74.7285 58.0348 69.9414 58.0348H61.0481C56.2716 58.0348 52.3958 54.1776 52.3958 49.424V34.1309H78.5937Z" fill="#0023A3"/>
<path d="M104.802 34.1309V49.424C104.802 54.1776 100.937 58.0348 96.1498 58.0348H87.2565C82.4799 58.0348 78.6042 54.1776 78.6042 49.424V34.1309H104.802Z" fill="#007EB3"/>
<path d="M131 34.1309V49.424C131 54.1776 127.124 58.0348 122.348 58.0348H113.454C108.678 58.0348 104.802 54.1776 104.802 49.424V34.1309H131Z" fill="#0023A3"/>
<path d="M35.9606 0L26.1979 34.1306H0L14.0574 4.62859C15.3982 1.80348 18.2684 0 21.4004 0H35.9501H35.9606Z" fill="#0037FF"/>
<path d="M55.6535 0L52.3958 34.1306H26.1979L35.9606 0H55.6535Z" fill="#27AAE1"/>
<path d="M78.5937 34.1306H52.3958L55.6535 0H75.3465L78.5937 34.1306Z" fill="#0037FF"/>
<path d="M104.802 34.1306H78.5937L75.3465 0H95.0394L104.802 34.1306Z" fill="#27AAE1"/>
<path d="M131 34.1306H104.802L95.0394 0H109.589C112.732 0 115.591 1.80348 116.932 4.62859L130.99 34.141L131 34.1306Z" fill="#0037FF"/>
<path d="M78.8556 76.1423V116.163H52.1339V76.1423C52.1339 71.6701 55.7792 68.0527 60.2625 68.0527H70.7165C75.2103 68.0527 78.8451 71.6805 78.8451 76.1423H78.8556Z" fill="white"/>
</g>
<defs>
<linearGradient id="paint0_linear_193_502" x1="65.5" y1="121" x2="65.5" y2="49.4238" gradientUnits="userSpaceOnUse">
<stop stop-color="#EC008C"/>
<stop offset="0.13" stop-color="#F01C6D"/>
<stop offset="0.31" stop-color="#F53F46"/>
<stop offset="0.49" stop-color="#F95B27"/>
<stop offset="0.67" stop-color="#FC6F11"/>
<stop offset="0.84" stop-color="#FE7A04"/>
<stop offset="1" stop-color="#FF7F00"/>
</linearGradient>
<clipPath id="clip0_193_502">
<rect width="131" height="121" fill="white"/>
</clipPath>
</defs>
</svg>
